<svg width="58" height="25" viewBox="0 0 58 25" fill="none" xmlns="http://www.w3.org/2000/svg">
<rect width="58" height="24.0415" fill="#EC111A"/>
<path d="M1.95346 2.40417V21.6373H5.40942L5.55968 13.0726L7.06227 21.6373H9.01564L10.5182 13.0726V21.6373H17.1296L17.5804 18.7824H20.2851L20.7358 21.6373H27.4975V15.4767H28.2488L29.7514 21.6373H33.2073L31.1037 14.4249C32.288 13.2354 32.8474 12.4377 33.2073 10.2176L35.1607 21.6373H39.368L42.0726 4.65805V21.6373H48.684V18.1814H45.5286V13.8239H48.684V10.2176H45.5286V6.01038H48.684V2.40417H38.9172L37.2643 14.7254L35.912 2.40417H32.0053L32.3058 5.25909C31.7048 3.7565 29.7514 2.40417 28.5493 2.40417H23.8913V19.2332L21.4871 2.40417H16.6789L14.1244 19.8342V2.40417H9.61667L7.96382 11.8705L6.31097 2.40417H1.95346Z" fill="white"/>
<path d="M49.2851 21.6373V2.40417H52.741V18.3316H55.7462V21.6373H49.2851Z" fill="white"/>
<path d="M19.083 7.66315L18.0312 15.3264H20.1348L19.083 7.66315Z" fill="#EC111A"/>
<path d="M27.4975 11.7201V5.70978C28.8815 6.14672 29.7514 6.91185 29.7514 8.86522C29.7514 10.2175 28.9045 11.5298 27.4975 11.7201Z" fill="#EC111A"/>
</svg>
